<svg width="862" height="866" viewBox="0 0 862 866" fill="none" xmlns="http://www.w3.org/2000/svg">
<path d="M431 865.112C669.041 865.112 862 671.457 862 432.556C862 193.655 669.041 0 431 0C192.959 0 0 193.655 0 432.556C0 671.457 192.959 865.112 431 865.112Z" fill="#5847FF"/>
<path d="M211.939 555.179L194.452 559.878C180.441 563.642 172.515 578.536 179.386 591.301C215.818 658.988 316.818 751.93 494.923 705.51C673.572 658.948 713.219 526.314 709.93 448.506C709.322 434.114 695.144 425.352 681.241 429.087L663.851 433.759C651.951 436.957 644.228 448.339 643.896 460.667C642.453 514.294 617.57 615.967 480.909 652.685C351.863 687.357 274.081 618.125 242.323 568.077C235.822 557.832 223.668 552.028 211.939 555.179Z" fill="white"/>
<path fill-rule="evenodd" clip-rule="evenodd" d="M295.392 315.843L320.288 409.684C320.323 409.778 320.359 409.871 320.394 409.965C332.91 456.632 373.559 510.472 449.642 490.023C535.269 467.009 534.618 398.734 523.046 355.098L522.996 355.112L504.945 287.073C503.637 282.14 503.167 276.705 503.537 270.765C504.166 264.756 505.78 259.317 508.379 254.448C510.909 249.318 514.638 246.092 519.567 244.767L618.622 218.154C625.886 216.202 631.328 212.098 634.949 205.842C638.76 199.256 639.701 192.329 637.773 185.06C635.844 177.792 631.632 172.388 625.135 168.85C618.828 164.983 612.043 164.025 604.78 165.976L507.281 192.172C489.19 197.311 475.522 206.545 466.274 219.875C457.217 232.876 451.877 246.268 450.254 260.053C448.44 274.167 449.324 287.973 452.905 301.471L452.516 301.576L470.491 369.328C470.599 369.735 470.714 370.135 470.836 370.53C477.616 401.625 476.034 434.514 437.656 444.828C401.848 454.452 380.302 423.514 372.863 395.462L372.796 395.48L338.11 264.737C335.922 257.539 331.615 252.3 325.186 249.021C318.69 245.483 311.809 244.69 304.546 246.641L188.197 277.901C165.574 284.813 149.769 294.9 140.781 308.16C131.725 321.161 126.289 334.718 124.476 348.832C122.593 362.686 123.373 376.103 126.817 389.082C130.398 402.581 136.34 415.028 144.644 426.424C153.138 437.49 164.565 446.517 178.925 453.504C193.475 460.162 209.864 461.182 228.092 456.563L273.797 444.944C281.061 442.993 286.468 438.759 290.02 432.243C293.9 425.917 294.876 419.119 292.947 411.851C291.019 404.582 286.806 399.179 280.309 395.641C274.003 391.773 267.218 390.815 259.954 392.767L212.693 404.804C207.764 406.128 202.967 405.331 198.302 402.413C193.569 399.235 189.605 395.295 186.412 390.591C183.409 385.557 181.219 380.445 179.841 375.253C178.395 369.802 177.762 364.271 177.941 358.661C178.31 352.722 179.795 347.318 182.393 342.448C184.923 337.319 188.618 333.962 193.479 332.378L282.589 308.437C289.402 306.884 293.67 309.353 295.392 315.843Z" fill="white"/>
</svg>
